<?xml version="1.0" encoding="UTF-8"?>
<svg version="1.1" xmlns="http://www.w3.org/2000/svg" width="1024" height="1024">
<path d="M0 0 C337.92 0 675.84 0 1024 0 C1024 337.92 1024 675.84 1024 1024 C686.08 1024 348.16 1024 0 1024 C0 686.08 0 348.16 0 0 Z " fill="#FDFCFB" transform="translate(0,0)"/>
<path d="M0 0 C0.83287537 -0.00570007 1.66575073 -0.01140015 2.52386475 -0.01727295 C4.28542836 -0.02668209 6.04700925 -0.03324059 7.80859375 -0.03710938 C10.43523312 -0.04669565 13.06104776 -0.07770715 15.6875 -0.109375 C30.64313171 -0.20331387 45.28805443 1.45178112 59.734375 5.453125 C60.50442871 5.66219482 61.27448242 5.87126465 62.06787109 6.08666992 C88.76805779 13.56954203 114.40341771 25.67542802 135.234375 44.203125 C136.05808594 44.91855469 136.88179687 45.63398438 137.73046875 46.37109375 C148.80059993 56.12869768 158.43327987 66.40091783 167.234375 78.203125 C167.85957031 79.03328125 168.48476563 79.8634375 169.12890625 80.71875 C189.2130745 108.37563742 200.65832437 140.48120049 205.234375 174.203125 C205.50024414 176.01949463 205.50024414 176.01949463 205.77148438 177.87255859 C206.36867845 182.71448367 206.35999648 187.51807201 206.33203125 192.390625 C206.3306163 193.33373535 206.32920135 194.2768457 206.32774353 195.24853516 C206.3221874 198.23343197 206.30964323 201.21825121 206.296875 204.203125 C206.29185432 206.23828016 206.28729241 208.27343651 206.28320312 210.30859375 C206.27223237 215.27346697 206.25499839 220.23828287 206.234375 225.203125 C206.98652283 225.41086548 207.73867065 225.61860596 208.51361084 225.8326416 C215.7455717 227.83032159 222.97719433 229.82921998 230.20847702 231.82935333 C233.92250287 232.85659024 237.63663992 233.88342059 241.35107422 234.90917969 C249.2229811 237.08336323 257.09261717 239.26534081 264.95861053 241.46083069 C269.1214159 242.62090647 273.28847925 243.7637281 277.45989609 244.89243317 C279.43937407 245.42972181 281.41713857 245.97286076 283.39434814 246.51843262 C285.81658417 247.18617924 288.24156548 247.84407464 290.6696167 248.49035645 C291.7431842 248.78937866 292.81675171 249.08840088 293.92285156 249.39648438 C294.85695862 249.65022827 295.79106567 249.90397217 296.753479 250.16540527 C299.67472844 251.38731791 301.24762897 252.75073875 303.234375 255.203125 C303.72071617 262.5173148 298.83013031 268.34576896 295.046875 274.265625 C294.32263643 275.417414 293.59942347 276.56984848 292.87719727 277.72290039 C291.03398383 280.65873442 289.17633687 283.5851031 287.31335449 286.50842285 C285.63793512 289.13992497 283.9720281 291.7774367 282.3046875 294.4140625 C280.01696136 298.02460099 277.72233752 301.6305303 275.41796875 305.23046875 C274.65202393 306.43678955 274.65202393 306.43678955 273.87060547 307.66748047 C272.68493774 309.50489393 271.47196363 311.32477997 270.24267578 313.13330078 C269.26596924 314.59292236 269.26596924 314.59292236 268.26953125 316.08203125 C267.66633057 316.96576416 267.06312988 317.84949707 266.44165039 318.76000977 C265.03228487 321.07367266 265.03228487 321.07367266 265.43701172 323.35351562 C266.68195245 326.2413512 268.45032832 328.59738458 270.296875 331.140625 C270.7309668 331.73979736 271.16505859 332.33896973 271.61230469 332.95629883 C276.32564442 339.41570934 281.19921512 345.75561666 286.06225586 352.10253906 C290.56337557 357.98322957 294.98883321 363.91239241 299.359375 369.890625 C304.58085098 377.03246372 309.94139747 384.04975425 315.44189453 390.97924805 C325.91008542 404.25738752 325.91008542 404.25738752 326.859375 409.953125 C326.10922591 413.85390026 324.92902306 415.31352334 322.234375 418.203125 C319.52172852 419.91064453 319.52172852 419.91064453 316.30078125 421.4609375 C315.40124474 421.8948027 315.40124474 421.8948027 314.48353577 422.33743286 C306.42845523 426.15599683 298.17698525 429.54744665 289.93579102 432.93945312 C287.14225062 434.09032958 284.35322611 435.25168808 281.56445312 436.4140625 C279.77629842 437.1542664 277.98789597 437.89387214 276.19921875 438.6328125 C275.37211899 438.97754608 274.54501923 439.32227966 273.69285583 439.67745972 C272.5299276 440.15398483 272.5299276 440.15398483 271.34350586 440.64013672 C270.66847519 440.91880585 269.99344452 441.19747498 269.29795837 441.48458862 C266.96953499 442.29534186 264.65321761 442.73885568 262.234375 443.203125 C262.24082755 443.95003916 262.2472801 444.69695332 262.25392818 445.46650124 C262.40854869 463.64432563 262.52436912 481.82201871 262.5970602 500.00036049 C262.63314801 508.79133349 262.68234384 517.58186742 262.76245117 526.37255859 C262.83224346 534.03496957 262.8773876 541.69706258 262.89299446 549.35978258 C262.9021171 553.4169688 262.92353922 557.4732454 262.9744854 561.53013992 C263.02207021 565.3503874 263.03664251 569.16935247 263.02612877 572.98986816 C263.02805149 574.39034373 263.04193676 575.79086303 263.06881332 577.191082 C263.26145046 587.74662686 263.26145046 587.74662686 260.72190762 591.34795856 C258.95704082 592.90246964 257.29593203 594.08126573 255.234375 595.203125 C254.30197998 595.71286865 253.36958496 596.2226123 252.40893555 596.74780273 C251.48894775 597.12364502 250.56895996 597.4994873 249.62109375 597.88671875 C248.55665039 598.33104248 247.49220703 598.77536621 246.39550781 599.2331543 C245.24920898 599.69761963 244.10291016 600.16208496 242.921875 600.640625 C241.04185616 601.42072686 239.16404321 602.20598064 237.28634644 602.99165344 C235.9667096 603.54371708 234.64648747 604.09438351 233.32571411 604.64372253 C226.53047084 607.47610828 219.80628344 610.46263573 213.08145142 613.4574585 C197.49825689 620.39173855 181.82053343 627.09203205 166.11454773 633.74252319 C164.84548332 634.27989609 164.84548332 634.27989609 163.55078125 634.828125 C162.70099197 635.18790436 161.8512027 635.54768372 160.97566223 635.91836548 C151.52828269 639.92098209 142.10002019 643.96796284 132.671875 648.015625 C117.45591258 654.54686678 102.22412984 661.04010739 86.984375 667.515625 C71.46713593 674.1094769 55.97056484 680.74693623 40.51171875 687.4765625 C38.97233643 688.13736816 38.97233643 688.13736816 37.40185547 688.81152344 C35.15509267 689.7986167 32.92632906 690.82714359 30.71142578 691.88378906 C21.74585102 696.04720293 15.24539387 698.20323563 5.6640625 695.01513672 C1.44588761 693.38957289 -2.65415225 691.51599293 -6.765625 689.640625 C-8.3139986 688.95270796 -9.86333734 688.26695969 -11.41357422 687.58325195 C-14.62287934 686.16594367 -17.82788396 684.73950157 -21.03027344 683.30664062 C-27.57152036 680.38912518 -34.16546606 677.59710724 -40.75787354 674.79772949 C-61.17283356 666.11481343 -81.46317536 657.14485336 -101.765625 648.203125 C-108.53553372 645.22185415 -115.30618446 642.24227794 -122.078125 639.265625 C-122.90773743 638.90091095 -123.73734985 638.5361969 -124.59210205 638.16043091 C-140.50308013 631.16881077 -156.45311659 624.26862556 -172.4152832 617.39477539 C-173.30834671 617.01006577 -174.20141022 616.62535614 -175.12153625 616.22898865 C-176.77551377 615.51667763 -178.42970003 614.80485099 -180.08415222 614.09364319 C-185.32880036 611.83554793 -190.55236871 609.53275793 -195.765625 607.203125 C-194.65774314 603.87947942 -194.18607272 603.52891713 -191.40625 601.671875 C-190.36029663 600.95898315 -190.36029663 600.95898315 -189.29321289 600.23168945 C-188.16580688 599.47505005 -188.16580688 599.47505005 -187.015625 598.703125 C-179.1645576 593.30072717 -171.89657181 587.51529821 -164.765625 581.203125 C-163.87230469 580.42066406 -162.97898437 579.63820313 -162.05859375 578.83203125 C-159.59859345 576.65166232 -157.17326598 574.4411 -154.765625 572.203125 C-154.01796875 571.50960937 -153.2703125 570.81609375 -152.5 570.1015625 C-134.04850053 552.35973608 -122.03707399 529.82244954 -115.765625 505.203125 C-115.518125 504.2853125 -115.270625 503.3675 -115.015625 502.421875 C-112.2338493 490.21297055 -113.20218046 476.53557551 -114.765625 464.203125 C-108.15752296 466.0506397 -101.89408928 468.2683089 -95.6171875 471.03125 C-93.93634041 471.7555391 -92.25534664 472.4794879 -90.57421875 473.203125 C-87.96530584 474.33343985 -85.35808972 475.46736559 -82.75341797 476.60742188 C-80.21220582 477.71703868 -77.66526171 478.8125025 -75.1171875 479.90625 C-73.94840561 480.42484589 -73.94840561 480.42484589 -72.75601196 480.95391846 C-71.66369766 481.42000519 -71.66369766 481.42000519 -70.54931641 481.89550781 C-69.91329498 482.17291809 -69.27727356 482.45032837 -68.62197876 482.73614502 C-66.28701421 483.3235232 -65.00495089 483.05508544 -62.765625 482.203125 C-60.91352801 480.43269528 -59.25108567 478.69137549 -57.578125 476.765625 C-56.8519397 475.95146118 -56.8519397 475.95146118 -56.11108398 475.12084961 C-55.1219383 474.01080292 -54.13632119 472.89760168 -53.15429688 471.78125 C-51.22945742 469.59380938 -49.27887482 467.42996057 -47.328125 465.265625 C-46.60496094 464.45996094 -45.88179688 463.65429688 -45.13671875 462.82421875 C-41.39260777 458.68534154 -37.59833698 454.5931459 -33.80859375 450.49609375 C-30.032419 446.41293243 -26.27437615 442.31337954 -22.5234375 438.20703125 C-20.57395116 436.07641042 -18.6077893 433.96247573 -16.6328125 431.85546875 C-16.12177979 431.30705322 -15.61074707 430.7586377 -15.08422852 430.19360352 C-14.09913013 429.13696613 -13.11017692 428.08390615 -12.11694336 427.03491211 C-9.52296082 424.53660407 -9.52296082 424.53660407 -8.765625 421.203125 C-9.28845566 421.00062134 -9.81128632 420.79811768 -10.34996033 420.58947754 C-17.13465151 417.96147501 -23.91898234 415.33254319 -30.703125 412.703125 C-31.8161499 412.27174225 -32.9291748 411.8403595 -34.07592773 411.39590454 C-47.84561919 406.05833574 -61.61014655 400.70800215 -75.36392212 395.32955933 C-112.67625757 380.74247912 -150.04784428 366.31194308 -187.52903748 352.1642952 C-189.57046928 351.39351556 -191.61161694 350.62198754 -193.65270996 349.85031128 C-197.4456997 348.41665116 -201.24027531 346.98724049 -205.03515625 345.55859375 C-206.73412804 344.91648956 -206.73412804 344.91648956 -208.46742249 344.26141357 C-209.50660324 343.87117004 -210.545784 343.48092651 -211.61645508 343.07885742 C-212.5193074 342.73884201 -213.42215973 342.3988266 -214.35237122 342.04850769 C-216.47901344 341.30352739 -218.57046707 340.70380727 -220.765625 340.203125 C-221.17397583 341.07203369 -221.17397583 341.07203369 -221.59057617 341.95849609 C-222.75956991 344.1915583 -224.05930891 346.09935572 -225.56640625 348.1171875 C-226.12513428 348.8702417 -226.6838623 349.6232959 -227.25952148 350.39916992 C-228.49197991 352.04526052 -229.72456859 353.6912536 -230.95727539 355.3371582 C-234.1774723 359.65321012 -237.32925353 363.98888111 -240.3359375 368.45703125 C-240.90272217 369.2857373 -241.46950684 370.11444336 -242.0534668 370.96826172 C-243.13387664 372.55473892 -244.19608973 374.15379871 -245.23754883 375.76611328 C-246.63977658 377.80192326 -247.92588811 379.55209396 -249.765625 381.203125 C-258.15565188 382.64516087 -267.48447284 378.24820953 -274.765625 374.203125 C-273.10720775 368.99984086 -269.91891153 364.95822476 -266.765625 360.578125 C-260.64889008 351.97181185 -254.7316277 343.24751233 -248.890625 334.453125 C-248.48473145 333.84233093 -248.07883789 333.23153687 -247.66064453 332.60223389 C-245.35914014 329.13795625 -243.06091315 325.6715256 -240.765625 322.203125 C-245.43590016 313.92994301 -250.19672527 305.83929151 -255.4921875 297.9453125 C-256.765625 295.203125 -256.765625 295.203125 -256.33203125 293.15625 C-254.17699217 290.46916886 -251.7190852 288.26703948 -249.078125 286.078125 C-248.49925537 285.59657959 -247.92038574 285.11503418 -247.32397461 284.61889648 C-227.20020127 268.17994739 -202.80014291 255.81693216 -178.765625 246.203125 C-179.095625 242.243125 -179.425625 238.283125 -179.765625 234.203125 C-222.60506638 253.19303444 -269.31979068 277.12853677 -287.703125 323.140625 C-291.20967253 332.47885013 -292.11564215 341.3375985 -292.390625 351.265625 C-292.44863281 352.99329102 -292.44863281 352.99329102 -292.5078125 354.75585938 C-292.60127652 357.57146296 -292.68703752 360.3870736 -292.765625 363.203125 C-306.75425443 356.85208303 -317.12950383 348.2545394 -327.765625 337.203125 C-328.23401287 342.94087636 -327.11506149 346.61271024 -323.765625 351.203125 C-322.01201749 353.25804897 -320.31038177 355.13759515 -318.390625 357.015625 C-317.8644458 357.53060547 -317.3382666 358.04558594 -316.79614258 358.57617188 C-290.84778923 383.34488109 -255.87512592 392.6742852 -222.09820557 401.3182373 C-146.91146059 420.57535107 -146.91146059 420.57535107 -132.296875 443.5078125 C-127.08550417 453.19969118 -124.17348276 464.22495362 -123.765625 475.203125 C-123.7140625 476.13898438 -123.6625 477.07484375 -123.609375 478.0390625 C-122.61565944 510.91448557 -137.66791708 540.14258378 -159.4921875 563.8046875 C-193.89828037 600.10252431 -239.56133507 624.14135044 -284.765625 644.203125 C-284.765625 640.79431483 -283.97127419 639.34651012 -282.453125 636.328125 C-275.92455368 622.17670477 -274.12412074 606.09109859 -279.3828125 591.234375 C-286.20183047 576.28647121 -298.46782054 568.79577259 -312.765625 562.203125 C-309.39653824 559.95706716 -305.96210159 558.71464686 -302.1796875 557.3671875 C-300.60780735 556.79837974 -299.03603453 556.22927528 -297.46435547 555.65991211 C-296.22368317 555.21251175 -296.22368317 555.21251175 -294.95794678 554.756073 C-226.58594778 531.52531128 -226.58594778 531.52531128 -168.765625 490.203125 C-188.53949526 481.49442566 -209.59828806 476.01424537 -230.41229248 470.4055481 C-267.60481947 460.37037597 -310.85840812 448.57116689 -331.765625 413.203125 C-336.85742512 403.07738612 -338.13600638 392.25441295 -339.2734375 381.11328125 C-339.40378387 379.8559166 -339.53413025 378.59855194 -339.66842651 377.30308533 C-339.94188515 374.64151654 -340.21277577 371.97981744 -340.47998047 369.31762695 C-340.88067849 365.33566041 -341.30651686 361.35651089 -341.73046875 357.37695312 C-343.02404515 344.8515698 -344.02754366 332.40697036 -344.07421875 319.80859375 C-344.08063385 318.7617189 -344.08704895 317.71484406 -344.09365845 316.63624573 C-344.01735833 307.72522152 -342.34113158 300.37442161 -338.765625 292.203125 C-338.50330078 291.59581543 -338.24097656 290.98850586 -337.97070312 290.36279297 C-332.37207849 277.63834093 -324.26513922 267.2454686 -314.765625 257.203125 C-314.02957031 256.40261719 -313.29351562 255.60210937 -312.53515625 254.77734375 C-293.29078774 234.56592155 -267.41180107 221.49444226 -242.765625 209.203125 C-241.96415039 208.80109863 -241.16267578 208.39907227 -240.33691406 207.98486328 C-194.60538411 185.203125 -194.60538411 185.203125 -181.765625 185.203125 C-181.8275 183.945 -181.889375 182.686875 -181.953125 181.390625 C-181.75632845 134.68424367 -154.66523892 89.33957966 -123.765625 56.203125 C-123.04117188 55.41292969 -122.31671875 54.62273437 -121.5703125 53.80859375 C-94.11862901 25.00759022 -54.64295277 7.31633693 -15.765625 1.203125 C-14.70448486 1.0280542 -13.64334473 0.8529834 -12.55004883 0.67260742 C-8.33924277 0.15022951 -4.23766078 0.02311232 0 0 Z " fill="#121212" transform="translate(499.765625,158.796875)"/>
<path d="M0 0 C0.52400391 0.42394043 1.04800781 0.84788086 1.58789062 1.28466797 C36.72115309 29.80179115 58.31442858 69.93756833 63.79081726 114.88372803 C64.12339283 118.24834768 64.1814762 121.61047381 64.203125 124.98828125 C64.21013931 125.72483948 64.21715363 126.46139771 64.22438049 127.22027588 C64.24178719 129.58441352 64.24823288 131.94830062 64.25 134.3125 C64.25067474 135.12057098 64.25134949 135.92864197 64.25204468 136.76119995 C64.2361152 148.75818188 63.79758921 160.28475697 61 172 C60.82307617 172.77504883 60.64615234 173.55009766 60.46386719 174.34863281 C53.06501296 206.28254771 38.35020566 233.03185016 16 257 C15.27554687 257.79019531 14.55109375 258.58039063 13.8046875 259.39453125 C-7.63324453 281.88619214 -35.87678164 296.24620553 -66 303 C-67.13791992 303.25966553 -68.27583984 303.51933105 -69.44824219 303.78686523 C-79.9116932 306.03848339 -90.07037626 306.52159362 -100.75 306.4375 C-101.58449677 306.43412628 -102.41899353 306.43075256 -103.27877808 306.42727661 C-115.91183925 306.35337608 -127.8398652 305.68059348 -140 302 C-140.83660156 301.75862305 -141.67320312 301.51724609 -142.53515625 301.26855469 C-161.52134312 295.71111044 -179.04318217 287.73438339 -195 276 C-195.89203125 275.35160156 -196.7840625 274.70320313 -197.703125 274.03515625 C-231.13263471 248.1426679 -255.13478147 209.63650059 -263 168 C-263.20625 166.91847656 -263.4125 165.83695313 -263.625 164.72265625 C-270.80789217 118.78207508 -258.94973336 69.2641389 -231.5625 31.625 C-226.70868789 25.43574752 -221.42065106 19.69049313 -216 14 C-215.29488281 13.23042969 -214.58976562 12.46085937 -213.86328125 11.66796875 C-158.91266558 -46.4226821 -60.88931484 -49.82609233 0 0 Z " fill="#FAF9F8" transform="translate(612,223)"/>
<path d="M0 0 C1.95620555 2.29368834 3.69989037 4.54951753 5.4375 7 C6.50554966 8.46554441 7.57459392 9.93036439 8.64453125 11.39453125 C9.47138428 12.53462646 9.47138428 12.53462646 10.31494141 13.69775391 C13.02807402 17.40462736 15.82576322 21.04546441 18.625 24.6875 C19.71876188 26.11457423 20.81251207 27.54165742 21.90625 28.96875 C22.42960938 29.65066406 22.95296875 30.33257813 23.4921875 31.03515625 C24.88139699 32.84544737 26.2690192 34.6569425 27.65625 36.46875 C31.0941801 40.95254027 34.53606257 45.42910763 38.0625 49.84375 C38.82796143 50.80535034 38.82796143 50.80535034 39.60888672 51.78637695 C40.60105498 53.03050163 41.59732445 54.27136942 42.59814453 55.50854492 C46 59.77781805 46 59.77781805 46 62 C44.56563599 62.58563721 44.56563599 62.58563721 43.10229492 63.18310547 C24.057073 70.96272723 5.03519919 78.79500685 -13.9375 86.75 C-15.74584145 87.50775058 -17.55419116 88.26548148 -19.36254883 89.02319336 C-26.74180702 92.11584798 -34.12057371 95.20965976 -41.49658203 98.31005859 C-66.15725176 108.67269466 -90.88130269 118.88084636 -115.66430664 128.94729614 C-118.71435847 130.18657096 -121.76222542 131.43100433 -124.80834961 132.67990112 C-128.4068307 134.15485064 -132.00962303 135.61871783 -135.61600494 137.07423782 C-136.95556071 137.61697115 -138.29356362 138.16355456 -139.6299057 138.71415329 C-141.46807717 139.47068939 -143.31251717 140.21194103 -145.15722656 140.95239258 C-146.19381409 141.37394119 -147.23040161 141.79548981 -148.29840088 142.22981262 C-151.10957033 143.03123694 -152.33074034 143.09262334 -155 142 C-156.7199707 140.63647461 -156.7199707 140.63647461 -158.42578125 138.90234375 C-159.05806641 138.26490234 -159.69035156 137.62746094 -160.34179688 136.97070312 C-160.99212891 136.29974609 -161.64246094 135.62878906 -162.3125 134.9375 C-163.2705957 133.97166992 -163.2705957 133.97166992 -164.24804688 132.98632812 C-168.0510177 129.12170833 -171.6656217 125.13358115 -175.21166992 121.03344727 C-178.37836158 117.4327135 -181.69628146 113.97460053 -185 110.5 C-189.54143609 105.72366204 -193.99857452 100.90320309 -198.31689453 95.92382812 C-200.96608234 92.89574574 -203.69946161 89.94759967 -206.4375 87 C-206.97826172 86.41605469 -207.51902344 85.83210937 -208.07617188 85.23046875 C-209.38313832 83.81940763 -210.69142284 82.40956752 -212 81 C-210.68803933 78.37607866 -209.66451737 78.29793322 -206.94726562 77.28271484 C-206.07704269 76.9534903 -205.20681976 76.62426575 -204.31022644 76.2850647 C-203.35191422 75.93060272 -202.39360199 75.57614075 -201.40625 75.2109375 C-200.40946732 74.83560883 -199.41268463 74.46028015 -198.38569641 74.07357788 C-196.22543405 73.26084547 -194.06398832 72.4512532 -191.90151978 71.64440918 C-186.15161497 69.49860894 -180.41038739 67.32979849 -174.66796875 65.1640625 C-173.5056926 64.72642578 -172.34341644 64.28878906 -171.1459198 63.83789062 C-160.66973023 59.88868 -150.23462926 55.83936955 -139.8125 51.75 C-136.47550127 50.44209296 -133.13823677 49.13486597 -129.80078125 47.828125 C-128.98763458 47.50969635 -128.17448792 47.1912677 -127.33670044 46.8631897 C-118.40606249 43.36993602 -109.45346828 39.93421164 -100.5 36.5 C-87.95279059 31.68595894 -75.4192853 26.83842227 -62.90145874 21.94845581 C-60.33684599 20.9470068 -57.77163865 19.94709465 -55.20629883 18.94750977 C-47.50977731 15.94659729 -39.81851665 12.93403938 -32.14479065 9.87522888 C-28.79183943 8.5399545 -25.43572209 7.21275609 -22.07919312 5.88650513 C-20.497674 5.25897071 -18.91774141 4.62742152 -17.33950806 3.9916687 C-15.17156011 3.1185713 -12.99868459 2.25905185 -10.82421875 1.40234375 C-10.18769379 1.14179199 -9.55116882 0.88124023 -8.89535522 0.61279297 C-3.26403351 -1.57730971 -3.26403351 -1.57730971 0 0 Z " fill="#FBFAF9" transform="translate(744,500)"/>
<path d="M0 0 C4.68057068 4.01191773 8.91016351 7.84616831 13 12.375 C13.52053955 12.94516846 14.0410791 13.51533691 14.57739258 14.1027832 C17.86136369 17.71008657 21.10098066 21.35393142 24.29296875 25.04296875 C26.33633431 27.3855915 28.41680859 29.69273422 30.5 32 C35.32121275 37.34789986 40.07894027 42.74302215 44.75 48.22265625 C49.49079323 53.78122479 54.24086217 59.30937974 59.1875 64.6875 C62.37736844 68.16136309 65.42048894 71.69910025 68.375 75.375 C72.24218863 80.1714071 76.34980716 84.6704146 80.55810547 89.16357422 C83.67539336 92.51081785 86.63566482 95.92995906 89.5 99.5 C93.83811256 104.90292201 98.50151501 109.94682342 103.22265625 115.01171875 C106.56893057 118.60172437 109.80732971 122.27299158 113 126 C113.44827148 126.5165918 113.89654297 127.03318359 114.35839844 127.56542969 C115.88992614 129.33089949 117.41426765 131.10237071 118.9375 132.875 C119.43515869 133.44734375 119.93281738 134.0196875 120.44555664 134.609375 C124 138.77188895 124 138.77188895 124 141 C102.68923021 150.6708505 81.37889129 160.33357088 59.93701172 169.7109375 C54.49136356 172.10104742 49.05859841 174.52015227 43.625 176.9375 C42.51970947 177.42895508 41.41441895 177.92041016 40.27563477 178.42675781 C34.95342974 180.79390021 29.63233548 183.1635136 24.31283569 185.53672791 C22.42408935 186.37918326 20.53508681 187.22106133 18.64599609 188.06274414 C16.2603736 189.12584295 13.87526138 190.19008774 11.49072266 191.25561523 C10.42128418 191.73200439 9.3518457 192.20839355 8.25 192.69921875 C7.30640625 193.12033936 6.3628125 193.54145996 5.390625 193.9753418 C3 195 3 195 0 196 C0 131.32 0 66.64 0 0 Z " fill="#FAF9F8" transform="translate(526,615)"/>
<path d="M0 0 C0.33 0 0.66 0 1 0 C1 64.35 1 128.7 1 195 C-5.27 192.03 -11.54 189.06 -18 186 C-20.95839844 184.6078125 -20.95839844 184.6078125 -23.9765625 183.1875 C-24.76804687 182.81496094 -25.55953125 182.44242188 -26.375 182.05859375 C-27.94460786 181.32011505 -29.51498146 180.58326265 -31.0859375 179.84765625 C-36.88777282 177.11222718 -36.88777282 177.11222718 -38 176 C-38.12230755 174.32402824 -38.17518538 172.64295309 -38.20100403 170.96272278 C-38.21972061 169.87091202 -38.23843719 168.77910126 -38.25772095 167.65420532 C-38.27297821 166.44549774 -38.28823547 165.23679016 -38.30395508 163.99145508 C-38.32337662 162.72632584 -38.34279816 161.46119659 -38.36280823 160.1577301 C-38.53684269 148.44301197 -38.62994005 136.72698021 -38.70387745 125.0112505 C-38.75961731 116.35958568 -38.85402253 107.71017763 -38.99953538 99.0595482 C-39.09849659 92.96938927 -39.1506977 86.87984456 -39.16973227 80.78891867 C-39.18243376 77.15651556 -39.21526659 73.52702841 -39.29932594 69.89551735 C-39.87953415 43.7201209 -39.87953415 43.7201209 -32.2487793 35.4675293 C-30.72341471 33.99501321 -29.16948859 32.62120407 -27.52409935 31.28471947 C-25.03085409 29.18307122 -22.96895141 26.75503852 -20.8125 24.3125 C-20.008125 23.4359375 -19.20375 22.559375 -18.375 21.65625 C-15.16478321 18.06587596 -12.14169802 14.33758317 -9.11328125 10.59375 C-3.1351509 3.25645138 -3.1351509 3.25645138 0 0 Z " fill="#FAF9F8" transform="translate(497,614)"/>
<path d="M0 0 C9.70361936 7.46432258 17.19691045 16.90595315 18.85864258 29.34545898 C19.01132828 31.8066726 19.05803215 34.23731007 19.0390625 36.703125 C19.03334229 37.57493408 19.02762207 38.44674316 19.02172852 39.3449707 C18.67189867 52.09785856 13.6452274 61.61176788 4.88671875 70.66015625 C-4.95957993 79.81142208 -16.81286261 82.5112329 -29.90625 82.2578125 C-41.31391667 81.2800125 -50.62013081 75.98163247 -58.52734375 67.8203125 C-68.4230227 55.89420267 -70.69600929 43.00282808 -69.4609375 27.953125 C-67.19202669 16.95863147 -60.1952111 6.89088413 -51.4609375 -0.046875 C-34.76281637 -10.19627208 -16.51336973 -11.3261729 0 0 Z " fill="#121212" transform="translate(598.4609375,400.046875)"/>
<path d="M0 0 C10.63732126 7.45690595 16.28541761 18.1980073 19.3125 30.55859375 C20.49369135 44.43759209 17.86570148 56.06907573 9.5625 67.49609375 C3.0229444 74.95194025 -6.47088469 81.14369167 -16.4375 82.49609375 C-30.56666024 83.37736039 -42.15739105 81.82927998 -53.4375 72.49609375 C-64.04276217 62.60364429 -69.09227765 51.08804077 -69.8125 36.68359375 C-69.49672248 24.83264905 -64.27704262 13.84578229 -56.3359375 5.2109375 C-40.83729623 -9.43883826 -17.98101331 -11.09405468 0 0 Z " fill="#121312" transform="translate(445.4375,288.50390625)"/>
<path d="M0 0 C10.35077117 5.19111624 16.9720343 11.5928504 22 22 C22.309375 22.63292969 22.61875 23.26585937 22.9375 23.91796875 C27.87676454 34.67511701 26.95581805 47.06908229 23 58 C17.17490868 70.25225926 9.10199413 79.3189994 -3.8515625 84.0390625 C-16.91671104 87.72764006 -29.17190546 86.96056005 -41.0625 80.375 C-51.82538605 73.48134614 -58.53006775 64.3852161 -62.375 52.1875 C-64.96348396 39.2181168 -63.04101315 26.79449568 -55.8125 15.75 C-43.08764832 -1.08138555 -20.01205436 -9.47189761 0 0 Z " fill="#121312" transform="translate(469,396)"/>
<path d="M0 0 C0.83072021 0.00829834 1.66144043 0.01659668 2.51733398 0.02514648 C14.63727685 0.3574427 24.26774214 5.10254831 32.8515625 13.65625 C40.90727756 22.94898497 45.02562145 34.60474854 44.83984375 46.88671875 C43.80389586 59.18624556 38.84082738 71.08782181 29.625 79.4375 C20.31639449 86.46126598 11.47992864 90.02684059 -0.1875 89.9375 C-1.06188721 89.93177979 -1.93627441 89.92605957 -2.8371582 89.92016602 C-14.07361697 89.6114778 -23.37162257 85.36392188 -31.375 77.4375 C-41.87411619 64.87605742 -44.42051712 52.43778428 -43.375 36.4375 C-41.51010386 24.36308769 -33.96639343 14.2099655 -24.40234375 6.9375 C-16.83058678 1.87962656 -9.04088002 -0.11746207 0 0 Z " fill="#121312" transform="translate(603.375,281.5625)"/>
<path d="M0 0 C9.55253508 7.89676233 15.58904602 18.90896745 17.00390625 31.29296875 C17.4220667 45.34679611 12.57792295 56.80041474 3.08203125 66.91796875 C-6.189454 75.83113573 -17.47455552 79.695329 -30.24609375 79.5234375 C-43.62851697 78.34213911 -54.08262743 71.75944686 -62.58984375 61.63671875 C-70.21372463 51.26212807 -72.53334022 39.9637455 -71.34375 27.25 C-68.5840683 14.47079212 -61.35543368 3.75778912 -50.46875 -3.5 C-34.06571998 -13.16380063 -15.01917966 -11.21432081 0 0 Z " fill="#121312" transform="translate(539.34375,224.75)"/>
<path d="M0 0 C6.04318795 3.57521936 8.84515994 9.65959765 11.08203125 16.109375 C12.41030168 23.57202415 11.01016352 30.63237039 7.08203125 37.109375 C2.00366953 43.07532649 -3.78922494 46.42297169 -11.515625 47.45703125 C-19.45701906 47.89263514 -25.74528685 45.73626307 -31.76953125 40.5 C-37.92705247 33.88748953 -39.53056348 26.90938794 -39.26171875 18.00390625 C-38.4523348 11.1885255 -34.90511654 6.27784835 -29.97265625 1.65234375 C-20.26185385 -5.63998885 -10.51255171 -4.88159224 0 0 Z " fill="#121212" transform="translate(525.91796875,337.890625)"/>
<path d="M0 0 C19.53762373 5.74635992 19.53762373 5.74635992 25.87890625 7.89453125 C26.94152931 8.25015388 26.94152931 8.25015388 28.02561951 8.61296082 C30.20556959 9.34323116 32.38406069 10.07773703 34.5625 10.8125 C36.07477328 11.31994917 37.5871428 11.82711162 39.09960938 12.33398438 C42.73418299 13.55271073 46.3674598 14.77522687 50 16 C48.48758375 20.15713196 45.99954496 21.54936025 42.2734375 23.76171875 C41.69902924 24.10450363 41.12462097 24.44728851 40.5328064 24.80046082 C34.59230526 28.31170536 28.53453861 31.61105178 22.44091797 34.84741211 C20.60224698 35.82459232 18.76776593 36.80932763 16.93359375 37.79492188 C11.35284219 40.77662222 5.83215191 43.50050633 0 46 C0 30.82 0 15.64 0 0 Z " fill="#121212" transform="translate(262,635)"/>
<path d="M0 0 C2.77124036 0.64412614 5.54199445 1.29022748 8.3125 1.9375 C9.49102539 2.21110352 9.49102539 2.21110352 10.69335938 2.49023438 C11.8293457 2.75610352 11.8293457 2.75610352 12.98828125 3.02734375 C14.03302612 3.27085571 14.03302612 3.27085571 15.09887695 3.51928711 C16.7534406 3.93765565 18.38094108 4.46031369 20 5 C20.33 15.89 20.66 26.78 21 38 C10.875 36.875 10.875 36.875 6.4375 35.4375 C5.59058594 35.16808594 4.74367188 34.89867187 3.87109375 34.62109375 C3.25363281 34.41613281 2.63617188 34.21117187 2 34 C1.20679475 29.73758031 0.82268505 25.62076314 0.68359375 21.2890625 C0.64169922 20.04511719 0.59980469 18.80117188 0.55664062 17.51953125 C0.49766602 15.59173828 0.49766602 15.59173828 0.4375 13.625 C0.39431641 12.31660156 0.35113281 11.00820313 0.30664062 9.66015625 C0.20087571 6.44020203 0.09878421 3.22017469 0 0 Z " fill="#F8F7F6" transform="translate(264,576)"/>
<path d="M0 0 C1.31504059 0.23627207 2.62691966 0.49012424 3.9375 0.75 C5.03384766 0.95882812 5.03384766 0.95882812 6.15234375 1.171875 C10.24725752 2.36271412 14.10300175 4.26800078 18 6 C18 16.56 18 27.12 18 38 C6 35 6 35 1 33 C-0.19388403 10.40510967 -0.19388403 10.40510967 0 0 Z " fill="#F7F6F5" transform="translate(308,588)"/>
<path d="M0 0 C11.09433962 3.54716981 11.09433962 3.54716981 16 6 C17.14995661 9.44986982 17.31273605 12.44135548 17.53515625 16.07421875 C17.57813339 16.7580513 17.62111053 17.44188385 17.66539001 18.1464386 C17.80153681 20.32657778 17.93208855 22.50701096 18.0625 24.6875 C18.15392809 26.16734054 18.24572066 27.64715861 18.33789062 29.12695312 C18.56282069 32.75105107 18.78273474 36.37543355 19 40 C15.9600165 39.46518809 12.98684177 38.77813571 10 38 C9.23236328 37.81671143 8.46472656 37.63342285 7.67382812 37.44458008 C5.20345073 36.59419151 3.80398753 35.90602558 2 34 C0.69476394 29.59718149 0.6060083 25.25790345 0.5 20.6875 C0.44070312 19.47642578 0.38140625 18.26535156 0.3203125 17.01757812 C0.0595306 11.34557175 -0.06709066 5.67754739 0 0 Z " fill="#F9F8F7" transform="translate(220,562)"/>
<path d="M0 0 C4.93437188 2.38437081 9.41843508 4.75818138 13 9 C14.37326901 13.46294099 14.48466147 17.78978648 14.5625 22.4375 C14.61728516 23.62666016 14.67207031 24.81582031 14.72851562 26.04101562 C14.98441807 32.02647406 15.05195963 38.00979661 15 44 C13.55962331 43.06692579 12.12281015 42.12834923 10.6875 41.1875 C9.48673828 40.40439453 9.48673828 40.40439453 8.26171875 39.60546875 C3.21705604 36.02454237 3.21705604 36.02454237 2.3840332 32.0925293 C2.27406006 30.93148682 2.16408691 29.77044434 2.05078125 28.57421875 C1.92509766 27.30255859 1.79941406 26.03089844 1.66992188 24.72070312 C1.550736 23.37630609 1.43159578 22.03190502 1.3125 20.6875 C1.18279897 19.35470448 1.05195152 18.02201999 0.91992188 16.68945312 C0.38648543 11.1038937 -0.07510571 5.61481736 0 0 Z " fill="#F8F7F6" transform="translate(185,541)"/>
<path d="M0 0 C0.33 0 0.66 0 1 0 C1 1.65 1 3.3 1 5 C1.66 5 2.32 5 3 5 C3.37993226 38.94256356 3.37993226 38.94256356 2.125 49.875 C2.04652832 50.56706543 1.96805664 51.25913086 1.88720703 51.97216797 C1.43047266 55.37444456 0.60333017 57.98815202 -1 61 C-0.9285376 60.11763672 -0.8570752 59.23527344 -0.78344727 58.32617188 C0.10656219 46.04481873 0.11443072 33.80855962 0.0625 21.5 C0.05747084 19.404949 0.05291046 17.30989681 0.04882812 15.21484375 C0.03794422 10.14319938 0.02075912 5.07161317 0 0 Z " fill="#0C0B0B" transform="translate(675,331)"/>
<path d="M0 0 C4 2 4 2 6 4 C6.53081049 10.15740163 5.56098797 14.38552637 3 20 C2.34 20.33 1.68 20.66 1 21 C0.67 14.07 0.34 7.14 0 0 Z " fill="#FAF9F9" transform="translate(347,606)"/>
<path d="M0 0 C0.99 0 1.98 0 3 0 C4.56481439 6.5666318 5.88498811 13.23244383 5 20 C4.34 20.66 3.68 21.32 3 22 C2 21 2 21 1.9375 17.98046875 C1.97903797 15.45963329 2.02070384 12.93879994 2.0625 10.41796875 C1.99062751 6.48744168 1.23126781 3.69380342 0 0 Z " fill="#1B1C1B" transform="translate(460,312)"/>
<path d="M0 0 C2 2 2 2 2.265625 3.91796875 C2.23066097 8.9964947 1.63820116 13.18778409 0 18 C-1.11520565 14.4154104 -1.13337312 11.05109703 -1.125 7.3125 C-1.12757813 6.15363281 -1.13015625 4.99476563 -1.1328125 3.80078125 C-1 1 -1 1 0 0 Z " fill="#232423" transform="translate(646,320)"/>
<path d="M0 0 C4.62 0 9.24 0 14 0 C14.33 0.66 14.66 1.32 15 2 C11.85069107 3.04976964 9.61185544 3.10131595 6.3125 3.0625 C5.31863281 3.05347656 4.32476562 3.04445313 3.30078125 3.03515625 C2.16189453 3.01775391 2.16189453 3.01775391 1 3 C0.67 2.01 0.34 1.02 0 0 Z " fill="#212221" transform="translate(505,301)"/>
<path d="M0 0 C0.33 0 0.66 0 1 0 C1.33 2.64 1.66 5.28 2 8 C2.33 8 2.66 8 3 8 C3.02725341 9.7290774 3.04650987 11.45828176 3.0625 13.1875 C3.07410156 14.15042969 3.08570313 15.11335937 3.09765625 16.10546875 C3.00486622 18.85576513 2.62111685 21.32479591 2 24 C1.67 24 1.34 24 1 24 C0.09516363 18.63510405 -0.12303662 13.49682543 -0.0625 8.0625 C-0.05798828 7.28326172 -0.05347656 6.50402344 -0.04882812 5.70117188 C-0.03716908 3.80074732 -0.01923877 1.90036294 0 0 Z " fill="#181818" transform="translate(306,592)"/>
<path d="M0 0 C2.56761548 2.61478952 2.9956345 3.94528576 3.29296875 7.671875 C3.27316751 9.03156035 3.23759202 10.3910934 3.1875 11.75 C3.17396484 12.44738281 3.16042969 13.14476562 3.14648438 13.86328125 C3.1112945 15.57585541 3.05749155 17.28802941 3 19 C2.01 18.34 1.02 17.68 0 17 C-0.2208564 14.04935852 -0.28060989 11.31631769 -0.1875 8.375 C-0.17396484 7.57320312 -0.16042969 6.77140625 -0.14648438 5.9453125 C-0.11109051 3.96325622 -0.05728234 1.98154449 0 0 Z " fill="#20201F" transform="translate(262,579)"/>
<path d="M0 0 C3.63 0 7.26 0 11 0 C11 0.66 11 1.32 11 2 C11.99 2.33 12.98 2.66 14 3 C9.38 3 4.76 3 0 3 C0 2.01 0 1.02 0 0 Z " fill="#1D1D1C" transform="translate(567,392)"/>
<path d="M0 0 C2.44989101 3.74235319 2.23086143 7.44225419 2.125 11.75 C2.11597656 12.44738281 2.10695313 13.14476562 2.09765625 13.86328125 C2.07419888 15.57566958 2.03833104 17.28788004 2 19 C1.67 19 1.34 19 1 19 C0.67 16.69 0.34 14.38 0 12 C-0.33 12 -0.66 12 -1 12 C-1.14285714 3.42857143 -1.14285714 3.42857143 0 0 Z " fill="#1C1B1B" transform="translate(469,248)"/>
<path d="M0 0 C4.05214179 1.74522938 7.30603961 4.4228157 10.75 7.125 C11.35199219 7.59292969 11.95398438 8.06085938 12.57421875 8.54296875 C14.05186616 9.69225007 15.52626005 10.84571235 17 12 C13.04651554 12 11.65915918 10.57690757 8.5 8.25 C7.5409375 7.55390625 6.581875 6.8578125 5.59375 6.140625 C3.27414818 4.22625483 1.65804324 2.48706486 0 0 Z " fill="#0C0C0C" transform="translate(405,490)"/>
<path d="M0 0 C0.66 0.33 1.32 0.66 2 1 C1.49202991 5.3177458 0.80317221 9.03302114 -1 13 C-1.66 12.67 -2.32 12.34 -3 12 C-2.69230293 10.18667846 -2.37870936 8.37435655 -2.0625 6.5625 C-1.80146484 5.04849609 -1.80146484 5.04849609 -1.53515625 3.50390625 C-1 1 -1 1 0 0 Z " fill="#1D1D1D" transform="translate(324,306)"/>
<path d="M0 0 C2 3 2 3 3 5.625 C3.76047262 8.15139938 3.76047262 8.15139938 6 9 C5.34 10.32 4.68 11.64 4 13 C3.13083113 11.59248779 2.28014851 10.1735479 1.4375 8.75 C0.72400391 7.56664062 0.72400391 7.56664062 -0.00390625 6.359375 C-1.13022151 3.69155375 -1.0169313 2.65498232 0 0 Z " fill="#181818" transform="translate(410,451)"/>
<path d="M0 0 C0.08086147 1.79093191 0.13912702 3.58289628 0.1875 5.375 C0.22230469 6.37273437 0.25710938 7.37046875 0.29296875 8.3984375 C0.19628906 9.25695312 0.09960938 10.11546875 0 11 C-0.99 11.66 -1.98 12.32 -3 13 C-3 9.04 -3 5.08 -3 1 C-1 0 -1 0 0 0 Z " fill="#D1D0CF" transform="translate(620,431)"/>
<path d="M0 0 C2.48935591 0.78930797 4.669779 1.8348895 7 3 C6.67 3.99 6.34 4.98 6 6 C1.545 4.02 1.545 4.02 -3 2 C-2.01 1.34 -1.02 0.68 0 0 Z " fill="#181818" transform="translate(190,719)"/>
<path d="M0 0 C4.97306516 0.49730652 8.63799813 1.55302334 13 4 C13 4.33 13 4.66 13 5 C7.375 5.25 7.375 5.25 4 3 C4 2.34 4 1.68 4 1 C2.68 0.67 1.36 0.34 0 0 Z " fill="#1D1D1D" transform="translate(204,536)"/>
<path d="M0 0 C0.33 0 0.66 0 1 0 C1.33 4.95 1.66 9.9 2 15 C1.01 15.33 0.02 15.66 -1 16 C-0.67 10.72 -0.34 5.44 0 0 Z " fill="#191A19" transform="translate(615,432)"/>
<path d="M0 0 C0.33 0 0.66 0 1 0 C1 5.28 1 10.56 1 16 C0.67 16 0.34 16 0 16 C-0.66 12.7 -1.32 9.4 -2 6 C-1.34 6 -0.68 6 0 6 C0 4.02 0 2.04 0 0 Z " fill="#DEDEDC" transform="translate(223,760)"/>
<path d="M0 0 C1.27875 -0.061875 2.5575 -0.12375 3.875 -0.1875 C4.95394531 -0.23970703 4.95394531 -0.23970703 6.0546875 -0.29296875 C6.69664062 -0.19628906 7.33859375 -0.09960938 8 0 C8.66 0.99 9.32 1.98 10 3 C7.03 3 4.06 3 1 3 C0.67 2.01 0.34 1.02 0 0 Z " fill="#181817" transform="translate(564,479)"/>
<path d="M0 0 C2.97 0.99 5.94 1.98 9 3 C7.02 3.99 7.02 3.99 5 5 C1.75 3.625 1.75 3.625 -1 2 C-0.67 1.34 -0.34 0.68 0 0 Z " fill="#191919" transform="translate(470,796)"/>
<path d="M0 0 C0.99 0.33 1.98 0.66 3 1 C2.34 1 1.68 1 1 1 C1.185625 1.598125 1.37125 2.19625 1.5625 2.8125 C2.13938109 5.69690544 1.28938442 7.42123116 0 10 C-0.99 9.67 -1.98 9.34 -3 9 C-2.01 6.03 -1.02 3.06 0 0 Z " fill="#1A1919" transform="translate(382,672)"/>
<path d="M0 0 C0.66 0.33 1.32 0.66 2 1 C2 1.66 2 2.32 2 3 C-2.455 4.485 -2.455 4.485 -7 6 C-7 5.01 -7 4.02 -7 3 C-4.69631264 1.93347808 -2.35981813 0.93578995 0 0 Z " fill="#181918" transform="translate(718,505)"/>
<path d="M0 0 C0.66 1.32 1.32 2.64 2 4 C0.625 6 0.625 6 -1 8 C-1.66 8 -2.32 8 -3 8 C-3 6.35 -3 4.7 -3 3 C-2.01 2.67 -1.02 2.34 0 2 C0 1.34 0 0.68 0 0 Z " fill="#1A1A19" transform="translate(612,452)"/>
<path d="M0 0 C1.0625 1.8125 1.0625 1.8125 2 4 C1.67 4.99 1.34 5.98 1 7 C-1.5625 8.1875 -1.5625 8.1875 -4 9 C-2.80100302 5.9168649 -1.52299523 2.93720508 0 0 Z " fill="#242423" transform="translate(218,794)"/>
<path d="M0 0 C0.33 0 0.66 0 1 0 C1.04898438 0.77085937 1.09796875 1.54171875 1.1484375 2.3359375 C1.22320313 3.33882813 1.29796875 4.34171875 1.375 5.375 C1.44460938 6.37273437 1.51421875 7.37046875 1.5859375 8.3984375 C1.76363964 11.15508879 1.76363964 11.15508879 4 13 C2.35 12.67 0.7 12.34 -1 12 C-0.67 8.04 -0.34 4.08 0 0 Z " fill="#060606" transform="translate(704,373)"/>
<path d="M0 0 C0.33 0 0.66 0 1 0 C1 3.3 1 6.6 1 10 C0.01 9.67 -0.98 9.34 -2 9 C-2.125 5.625 -2.125 5.625 -2 2 C-1.34 1.34 -0.68 0.68 0 0 Z " fill="#1B1C1B" transform="translate(320,332)"/>
<path d="M0 0 C0.66 0.33 1.32 0.66 2 1 C1.74445946 2.46109063 1.46999628 3.91888096 1.1875 5.375 C1.03667969 6.18710937 0.88585937 6.99921875 0.73046875 7.8359375 C0 10 0 10 -3 12 C-2.01 8.04 -1.02 4.08 0 0 Z " fill="#E9E9E8" transform="translate(355,306)"/>
<path d="M0 0 C2.97 0.99 5.94 1.98 9 3 C8.67 3.99 8.34 4.98 8 6 C5.36 4.68 2.72 3.36 0 2 C0 1.34 0 0.68 0 0 Z " fill="#F2F1F0" transform="translate(552,477)"/>
<path d="M0 0 C-0.33 1.32 -0.66 2.64 -1 4 C-2.32 4.33 -3.64 4.66 -5 5 C-5 4.01 -5 3.02 -5 2 C-2 0 -2 0 0 0 Z M-8 4 C-6 5 -6 5 -6 5 Z " fill="#181818" transform="translate(411,188)"/>
<path d="M0 0 C0.66 0.33 1.32 0.66 2 1 C2 1.66 2 2.32 2 3 C-0.31 3.66 -2.62 4.32 -5 5 C-5.33 3.68 -5.66 2.36 -6 1 C-4.68 1 -3.36 1 -2 1 C-1.34 0.67 -0.68 0.34 0 0 Z " fill="#181918" transform="translate(731,500)"/>
<path d="M0 0 C0.99 0 1.98 0 3 0 C2.44271087 3.34373475 1.64826111 6.03312999 0 9 C-1.10844919 5.67465243 -0.84454356 3.37817425 0 0 Z " fill="#222222" transform="translate(673,390)"/>
<path d="M0 0 C-2.5654594 2.5654594 -4.47686668 2.54046087 -8 3 C-8 2.01 -8 1.02 -8 0 C-4.94736336 -0.98120464 -3.05263664 -0.98120464 0 0 Z " fill="#1B1B1B" transform="translate(414,283)"/>
<path d="M0 0 C2.1519437 3.22791555 2.20086443 4.28400809 2 8 C0.35 7.67 -1.3 7.34 -3 7 C-2.67 6.34 -2.34 5.68 -2 5 C-1.34 5.33 -0.68 5.66 0 6 C0 4.02 0 2.04 0 0 Z " fill="#ECEBEB" transform="translate(237,594)"/>
<path d="M0 0 C2.31 0.33 4.62 0.66 7 1 C6.67 1.99 6.34 2.98 6 4 C3.69 3.34 1.38 2.68 -1 2 C-0.67 1.34 -0.34 0.68 0 0 Z " fill="#191919" transform="translate(363,528)"/>
<path d="M0 0 C3.16115776 1.36983503 3.9927092 1.9890638 6 5 C4.68 5 3.36 5 2 5 C1.34 3.35 0.68 1.7 0 0 Z " fill="#242424" transform="translate(397,482)"/>
<path d="M0 0 C2.64 0.99 5.28 1.98 8 3 C7.01 3.66 6.02 4.32 5 5 C1.3125 3.625 1.3125 3.625 -2 2 C-1.34 1.34 -0.68 0.68 0 0 Z " fill="#1A1A1A" transform="translate(589,175)"/>
<path d="M0 0 C0.66 0.33 1.32 0.66 2 1 C0.02579865 3.52259061 -0.96745642 3.9929808 -4.1875 4.6875 C-5.5796875 4.8421875 -5.5796875 4.8421875 -7 5 C-7 4.34 -7 3.68 -7 3 C-4.69631264 1.93347808 -2.35981813 0.93578995 0 0 Z " fill="#F0F0EF" transform="translate(592,823)"/>
<path d="M0 0 C2.35171131 0.59861742 4.6859378 1.26924352 7 2 C7.33 2.66 7.66 3.32 8 4 C5.125 4.125 5.125 4.125 2 4 C1.34 3.34 0.68 2.68 0 2 C0 1.34 0 0.68 0 0 Z " fill="#1B1B1B" transform="translate(416,812)"/>
<path d="M0 0 C0.99 0 1.98 0 3 0 C2.67 2.31 2.34 4.62 2 7 C1.01 6.67 0.02 6.34 -1 6 C-0.67 4.02 -0.34 2.04 0 0 Z " fill="#1E1F1F" transform="translate(384,664)"/>
<path d="M0 0 C0.99 0.33 1.98 0.66 3 1 C3.33 2.98 3.66 4.96 4 7 C3.01 6.67 2.02 6.34 1 6 C0.67 4.02 0.34 2.04 0 0 Z " fill="#F5F5F4" transform="translate(696,293)"/>
<path d="M0 0 C0.66 0.99 1.32 1.98 2 3 C0.02 3.66 -1.96 4.32 -4 5 C-4 4.01 -4 3.02 -4 2 C-2.68 1.34 -1.36 0.68 0 0 Z " fill="#1A1A1A" transform="translate(423,180)"/>
</svg>
